<svg version="1.1" id="Layer_1" xmlns="http://www.w3.org/2000/svg" xmlns:xlink="http://www.w3.org/1999/xlink" x="0px" y="0px"
	 width="100%" viewBox="0 0 199 136" enable-background="new 0 0 199 136" xml:space="preserve">
<path fill="#FDFEFE" opacity="0.000000" stroke="none" 
	d="
M109.000000,137.000000 
	C72.666672,137.000000 36.833344,137.000000 1.000010,137.000000 
	C1.000006,91.666679 1.000006,46.333351 1.000003,1.000022 
	C67.333321,1.000015 133.666641,1.000015 199.999969,1.000007 
	C199.999969,46.333309 199.999969,91.666618 199.999985,136.999969 
	C169.833328,137.000000 139.666672,137.000000 109.000000,137.000000 
M177.168106,125.018715 
	C186.238632,121.310631 189.663757,114.114265 189.663864,104.799767 
	C189.664215,75.642723 189.668289,46.485680 189.656738,17.328640 
	C189.656235,16.057697 189.515427,14.786811 189.423843,13.244445 
	C188.583969,13.568211 188.084747,13.632494 187.759369,13.904622 
	C176.285645,23.500532 164.776413,33.055729 153.441071,42.812881 
	C152.174759,43.902893 151.287064,46.150536 151.274200,47.869171 
	C151.128540,67.361580 151.021210,86.857460 151.247620,106.348412 
	C151.412186,120.516548 162.636292,128.771759 177.168106,125.018715 
M143.193283,58.583015 
	C143.193283,55.832581 143.193283,53.082146 143.193283,50.005444 
	C130.911118,55.919167 119.289520,61.514217 107.669312,67.112183 
	C107.220772,67.328262 106.592842,67.460014 106.380669,67.824455 
	C105.756935,68.895790 104.849960,70.063889 104.848000,71.195473 
	C104.826141,83.826370 104.618370,96.472015 105.162796,109.083382 
	C105.510864,117.146431 110.350952,122.628181 117.970238,125.224312 
	C130.830338,129.606140 142.954269,120.379570 143.141998,105.945480 
	C143.343033,90.486870 143.191284,75.023682 143.193283,58.583015 
M75.729858,78.410973 
	C71.075806,79.657097 66.448311,81.017944 61.757137,82.103676 
	C59.195156,82.696625 58.238209,83.924995 58.305492,86.586029 
	C58.469444,93.070290 58.287781,99.562439 58.371391,106.049782 
	C58.521931,117.729782 66.474525,126.147789 77.353973,126.258736 
	C88.511452,126.372520 96.635124,117.982071 96.769424,105.997482 
	C96.881271,96.016510 96.810150,86.033264 96.776253,76.051178 
	C96.772018,74.804070 96.499741,73.557869 96.290154,71.793419 
	C89.392776,74.032272 82.951195,76.123177 75.729858,78.410973 
M47.684525,85.114281 
	C35.884686,86.698616 24.084846,88.282959 12.038110,89.900444 
	C12.038110,95.682190 11.880386,101.335854 12.071287,106.977715 
	C12.456283,118.355888 20.498793,126.268997 31.407368,126.230034 
	C42.027077,126.192093 49.882072,118.290894 50.243896,107.027283 
	C50.441601,100.872826 50.374619,94.704689 50.212826,88.548355 
	C50.181679,87.363220 49.154022,86.204277 47.684525,85.114281 
z"/>
<path fill="#09C39F" opacity="1.000000" stroke="none" 
	d="
M176.779068,125.146408 
	C162.636292,128.771759 151.412186,120.516548 151.247620,106.348412 
	C151.021210,86.857460 151.128540,67.361580 151.274200,47.869171 
	C151.287064,46.150536 152.174759,43.902893 153.441071,42.812881 
	C164.776413,33.055729 176.285645,23.500532 187.759369,13.904622 
	C188.084747,13.632494 188.583969,13.568211 189.423843,13.244445 
	C189.515427,14.786811 189.656235,16.057697 189.656738,17.328640 
	C189.668289,46.485680 189.664215,75.642723 189.663864,104.799767 
	C189.663757,114.114265 186.238632,121.310631 176.779068,125.146408 
z"/>
<path fill="#07C29E" opacity="1.000000" stroke="none" 
	d="
M143.193390,59.072754 
	C143.191284,75.023682 143.343033,90.486870 143.141998,105.945480 
	C142.954269,120.379570 130.830338,129.606140 117.970238,125.224312 
	C110.350952,122.628181 105.510864,117.146431 105.162796,109.083382 
	C104.618370,96.472015 104.826141,83.826370 104.848000,71.195473 
	C104.849960,70.063889 105.756935,68.895790 106.380669,67.824455 
	C106.592842,67.460014 107.220772,67.328262 107.669312,67.112183 
	C119.289520,61.514217 130.911118,55.919167 143.193283,50.005444 
	C143.193283,53.082146 143.193283,55.832581 143.193390,59.072754 
z"/>
<path fill="#0AC3A0" opacity="1.000000" stroke="none" 
	d="
M76.119736,78.312531 
	C82.951195,76.123177 89.392776,74.032272 96.290154,71.793419 
	C96.499741,73.557869 96.772018,74.804070 96.776253,76.051178 
	C96.810150,86.033264 96.881271,96.016510 96.769424,105.997482 
	C96.635124,117.982071 88.511452,126.372520 77.353973,126.258736 
	C66.474525,126.147789 58.521931,117.729782 58.371391,106.049782 
	C58.287781,99.562439 58.469444,93.070290 58.305492,86.586029 
	C58.238209,83.924995 59.195156,82.696625 61.757137,82.103676 
	C66.448311,81.017944 71.075806,79.657097 76.119736,78.312531 
z"/>
<path fill="#08C29F" opacity="1.000000" stroke="none" 
	d="
M48.135300,85.073769 
	C49.154022,86.204277 50.181679,87.363220 50.212826,88.548355 
	C50.374619,94.704689 50.441601,100.872826 50.243896,107.027283 
	C49.882072,118.290894 42.027077,126.192093 31.407368,126.230034 
	C20.498793,126.268997 12.456283,118.355888 12.071287,106.977715 
	C11.880386,101.335854 12.038110,95.682190 12.038110,89.900444 
	C24.084846,88.282959 35.884686,86.698616 48.135300,85.073769 
z"/>
</svg>